<svg xmlns="http://www.w3.org/2000/svg" xmlns:xlink="http://www.w3.org/1999/xlink" viewBox="0 0 140.97 23.25"><defs><style>.cls-1{fill:#0582f6;}.cls-2{fill:url(#linear-gradient);}.cls-3{fill:url(#linear-gradient-2);}.cls-4,.cls-5,.cls-6,.cls-7,.cls-8,.cls-9{isolation:isolate;}.cls-4{fill:url(#linear-gradient-3);}.cls-5{fill:url(#linear-gradient-4);}.cls-6{fill:url(#linear-gradient-5);}.cls-7{fill:url(#linear-gradient-6);}.cls-8{fill:url(#linear-gradient-7);}.cls-9{fill:url(#linear-gradient-8);}</style><linearGradient id="linear-gradient" x1="2.41" y1="8.53" x2="15.99" y2="18.14" gradientUnits="userSpaceOnUse"><stop offset="0" stop-color="#022454"/><stop offset="0.14" stop-color="#033775"/><stop offset="0.24" stop-color="#03438a"/><stop offset="0.48" stop-color="#045eb8"/><stop offset="0.7" stop-color="#0572da"/><stop offset="0.88" stop-color="#057eef"/><stop offset="1" stop-color="#0582f6"/></linearGradient><linearGradient id="linear-gradient-2" x1="2.1" y1="11.52" x2="22.56" y2="11.52" gradientUnits="userSpaceOnUse"><stop offset="0" stop-color="#022454"/><stop offset="0.18" stop-color="#033775"/><stop offset="0.24" stop-color="#03438a"/><stop offset="0.41" stop-color="#045eb8"/><stop offset="0.55" stop-color="#0572da"/><stop offset="0.67" stop-color="#057eef"/><stop offset="0.75" stop-color="#0582f6"/></linearGradient><linearGradient id="linear-gradient-3" x1="63.87" y1="39.95" x2="63.87" y2="-0.42" gradientUnits="userSpaceOnUse"><stop offset="0" stop-color="#022454"/><stop offset="0.16" stop-color="#022556"/><stop offset="0.22" stop-color="#02295d"/><stop offset="0.26" stop-color="#033068"/><stop offset="0.29" stop-color="#033775"/><stop offset="0.37" stop-color="#03438a"/><stop offset="0.57" stop-color="#045eb8"/><stop offset="0.75" stop-color="#0572da"/><stop offset="0.9" stop-color="#057eef"/><stop offset="1" stop-color="#0582f6"/></linearGradient><linearGradient id="linear-gradient-4" x1="83.58" y1="39.95" x2="83.58" y2="-0.42" xlink:href="#linear-gradient-3"/><linearGradient id="linear-gradient-5" x1="101" y1="39.95" x2="101" y2="-0.42" xlink:href="#linear-gradient-3"/><linearGradient id="linear-gradient-6" x1="116.46" y1="39.95" x2="116.46" y2="-0.42" xlink:href="#linear-gradient-3"/><linearGradient id="linear-gradient-7" x1="131.93" y1="39.95" x2="131.93" y2="-0.42" xlink:href="#linear-gradient-3"/><linearGradient id="linear-gradient-8" x1="44.01" y1="39.95" x2="44.01" y2="-0.42" xlink:href="#linear-gradient-3"/></defs><g id="Camada_2" data-name="Camada 2"><g id="Layer_1" data-name="Layer 1"><path class="cls-1" d="M2.08,13.88c0-5.58,6-13.17,14.38-8.62,3.14,1.7,5.28-1.47,3-3A12.67,12.67,0,0,0,12.28,0C5.5,0,0,5.23,0,11.69a11.58,11.58,0,0,0,5.88,10A10.62,10.62,0,0,1,2.08,13.88Z"/><path class="cls-2" d="M4,11.19c-.11,5.63,5.34,9.8,11.41,7.08,3.26-1.46,5.16,1.87,2.79,3.26a12.74,12.74,0,0,1-7.35,1.69C4.13,22.72,1,18,1.44,11.59c.31-4.21,4.94-7.91,9.66-7.73A7.69,7.69,0,0,0,4,11.19Z"/><circle class="cls-1" cx="18.15" cy="3.85" r="2.57"/><circle class="cls-1" cx="18.15" cy="19.31" r="2.57"/><path class="cls-3" d="M25.43,5.5a6,6,0,0,0-3.79,1.34,4.73,4.73,0,0,0-.46.32,2.67,2.67,0,0,1-.36.31c-.74.59-1.68,2.13-2.7,2.13a2.82,2.82,0,0,1-2.07-.91,4.59,4.59,0,0,1-.41-.36,4.37,4.37,0,1,0,0,6.91,4.59,4.59,0,0,1,.41-.36A2.82,2.82,0,0,1,18.12,14c1,0,2,1,2.7,1.56a3.65,3.65,0,0,1,.36.31l.25.19a6,6,0,1,0,4-10.53Z"/><path class="cls-4" d="M63.87,2.63a8.74,8.74,0,0,0-6.41,2.61,8.63,8.63,0,0,0-2.62,6.37,8.56,8.56,0,0,0,2.62,6.33,9.2,9.2,0,0,0,12.82,0,8.6,8.6,0,0,0,2.62-6.33,8.93,8.93,0,0,0-9-9Zm3.92,13a5.59,5.59,0,0,1-7.85,0,5.48,5.48,0,0,1-1.6-4,5.58,5.58,0,0,1,1.6-4.07,5.52,5.52,0,0,1,7.85,0,5.58,5.58,0,0,1,1.6,4.07A5.48,5.48,0,0,1,67.79,15.65Z"/><path class="cls-5" d="M88.86,5.38A9.71,9.71,0,0,0,82,3H75.71V20.15H82a9.7,9.7,0,0,0,6.83-2.36,8,8,0,0,0,2.58-6.21A8,8,0,0,0,88.86,5.38ZM86.33,15.54A6.15,6.15,0,0,1,82,17H79.19V6.16H82a6.15,6.15,0,0,1,4.3,1.47,5.1,5.1,0,0,1,1.61,4A5.11,5.11,0,0,1,86.33,15.54Z"/><path class="cls-6" d="M99.37,3,92,20.15h3.76l1.51-3.65h7.57l1.48,3.65H110L102.62,3ZM98.5,13.35,101,7.24l2.48,6.11Z"/><polygon class="cls-7" points="123.91 3.01 109.02 3.01 109.02 6.16 114.72 6.16 114.72 20.15 118.2 20.15 118.2 6.16 123.91 6.16 123.91 3.01"/><path class="cls-8" d="M133.55,3H130.3l-7.42,17.14h3.76l1.51-3.65h7.58l1.48,3.65H141Zm-4.12,10.34,2.51-6.11,2.48,6.11Z"/><path class="cls-9" d="M44.35,5.9A5.06,5.06,0,0,1,47.58,7c.59.46.83,1.2,1.38,1.8a3.11,3.11,0,0,0,2.4.61,2.76,2.76,0,0,0,1.32-.64,7.83,7.83,0,0,0-2.86-4.34A9.23,9.23,0,0,0,38,5.23a8.62,8.62,0,0,0-2.61,6.35A8.6,8.6,0,0,0,38,18a9.21,9.21,0,0,0,11.9.77,7.8,7.8,0,0,0,2.69-4,3,3,0,0,0-1.18-.35,4.49,4.49,0,0,0-2.91.93,9.31,9.31,0,0,1-.85.91,5.07,5.07,0,0,1-3.25,1.08,5.23,5.23,0,0,1-3.9-1.64,5.58,5.58,0,0,1-1.6-4.07,5.58,5.58,0,0,1,1.58-4A5.29,5.29,0,0,1,44.35,5.9Z"/></g></g></svg>